<mxfile host="app.diagrams.net" modified="2023-01-06T11:13:30.794Z" agent="5.0 (Windows NT 10.0; Win64; x64) AppleWebKit/537.36 (KHTML, like Gecko) Chrome/108.0.0.0 Safari/537.36" version="20.7.4" etag="q7yywze-H-cbmE_eY8aW" type="github">
  <diagram id="FTMYfUYjVG7pnufS5h2L" name="第 1 页">
    <mxGraphModel dx="812" dy="767" grid="1" gridSize="10" guides="1" tooltips="1" connect="1" arrows="1" fold="1" page="1" pageScale="1" pageWidth="827" pageHeight="1169" math="0" shadow="0">
      <root>
        <mxCell id="0" />
        <mxCell id="1" parent="0" />
        <mxCell id="vSvhDizwMLqlaj25CJx4-2" value="" style="swimlane;startSize=0;" vertex="1" parent="1">
          <mxGeometry x="30" y="920" width="530" height="200" as="geometry" />
        </mxCell>
        <mxCell id="vSvhDizwMLqlaj25CJx4-3" value="fsinsight-dev1" style="text;html=1;align=center;verticalAlign=middle;resizable=0;points=[];autosize=1;strokeColor=none;fillColor=none;" vertex="1" parent="vSvhDizwMLqlaj25CJx4-2">
          <mxGeometry x="115" width="100" height="30" as="geometry" />
        </mxCell>
        <mxCell id="vSvhDizwMLqlaj25CJx4-8" value="mysql&lt;br&gt;root @111111&lt;br&gt;port:3306&lt;br&gt;/etc/my.cnf" style="rounded=1;whiteSpace=wrap;html=1;" vertex="1" parent="vSvhDizwMLqlaj25CJx4-2">
          <mxGeometry x="20" y="130" width="80" height="60" as="geometry" />
        </mxCell>
        <mxCell id="vSvhDizwMLqlaj25CJx4-9" value="prometheus&lt;br&gt;port:9090&lt;br&gt;/etc/prometheus&lt;br&gt;/prometheus.yml" style="rounded=1;whiteSpace=wrap;html=1;" vertex="1" parent="vSvhDizwMLqlaj25CJx4-2">
          <mxGeometry x="105" y="130" width="95" height="60" as="geometry" />
        </mxCell>
        <mxCell id="vSvhDizwMLqlaj25CJx4-10" value="node-exporter&lt;br&gt;port:9100&lt;br&gt;" style="rounded=1;whiteSpace=wrap;html=1;" vertex="1" parent="vSvhDizwMLqlaj25CJx4-2">
          <mxGeometry x="210" y="130" width="90" height="60" as="geometry" />
        </mxCell>
        <mxCell id="vSvhDizwMLqlaj25CJx4-11" value="grafana-server&lt;br&gt;port:3000&lt;br&gt;/etc/grafana/&lt;br&gt;grafana.ini" style="rounded=1;whiteSpace=wrap;html=1;" vertex="1" parent="vSvhDizwMLqlaj25CJx4-2">
          <mxGeometry x="310" y="130" width="90" height="60" as="geometry" />
        </mxCell>
        <mxCell id="vSvhDizwMLqlaj25CJx4-4" value="" style="swimlane;startSize=0;" vertex="1" parent="1">
          <mxGeometry x="580" y="920" width="90" height="200" as="geometry" />
        </mxCell>
        <mxCell id="vSvhDizwMLqlaj25CJx4-5" value="fsinsight-dev2" style="text;html=1;align=center;verticalAlign=middle;resizable=0;points=[];autosize=1;strokeColor=none;fillColor=none;" vertex="1" parent="vSvhDizwMLqlaj25CJx4-4">
          <mxGeometry width="100" height="30" as="geometry" />
        </mxCell>
        <mxCell id="vSvhDizwMLqlaj25CJx4-6" value="" style="swimlane;startSize=0;" vertex="1" parent="1">
          <mxGeometry x="710" y="920" width="80" height="200" as="geometry" />
        </mxCell>
        <mxCell id="vSvhDizwMLqlaj25CJx4-7" value="fsinsight-dev3" style="text;html=1;align=center;verticalAlign=middle;resizable=0;points=[];autosize=1;strokeColor=none;fillColor=none;" vertex="1" parent="vSvhDizwMLqlaj25CJx4-6">
          <mxGeometry x="-10" width="100" height="30" as="geometry" />
        </mxCell>
      </root>
    </mxGraphModel>
  </diagram>
</mxfile>
